<svg id="delete-trash-remove-svgrepo-com" xmlns="http://www.w3.org/2000/svg" width="22.826" height="24.049" viewBox="0 0 22.826 24.049">
  <path id="Path_564" data-name="Path 564" d="M10.723,3.946h8.152a1.223,1.223,0,0,0,0-2.446H10.723a1.223,1.223,0,0,0,0,2.446Z" transform="translate(-3.386 -1.5)" fill-rule="evenodd"/>
  <path id="Path_565" data-name="Path 565" d="M4.446,8.946V22.4a4.077,4.077,0,0,0,4.076,4.076H18.3A4.077,4.077,0,0,0,22.381,22.4V8.946h1.341a1.169,1.169,0,0,0,1.1-1.223,1.169,1.169,0,0,0-1.1-1.223H3.1A1.169,1.169,0,0,0,2,7.723,1.169,1.169,0,0,0,3.1,8.946H4.446ZM10.152,11.8v9.783a.815.815,0,1,0,1.63,0V11.8a.815.815,0,1,0-1.63,0Zm4.891,0v9.783a.815.815,0,1,0,1.63,0V11.8a.815.815,0,1,0-1.63,0Z" transform="translate(-2 -2.424)" fill-rule="evenodd"/>
</svg>
